<mxfile host="app.diagrams.net" modified="2024-02-22T00:34:48.186Z" agent="Mozilla/5.0 (Windows NT 10.0; Win64; x64) AppleWebKit/537.36 (KHTML, like Gecko) Chrome/121.0.0.0 Safari/537.36" etag="Kp1u1RzEbeZ80gAnw3Bh" version="23.1.5" type="device">
  <diagram id="C5RBs43oDa-KdzZeNtuy" name="Page-1">
    <mxGraphModel dx="1185" dy="907" grid="1" gridSize="10" guides="1" tooltips="1" connect="1" arrows="1" fold="1" page="1" pageScale="1" pageWidth="827" pageHeight="1169" math="0" shadow="0">
      <root>
        <mxCell id="WIyWlLk6GJQsqaUBKTNV-0" />
        <mxCell id="WIyWlLk6GJQsqaUBKTNV-1" parent="WIyWlLk6GJQsqaUBKTNV-0" />
        <mxCell id="Otm5AM5ki5C00shR3hLr-1" value="출력" style="shape=document;whiteSpace=wrap;html=1;boundedLbl=1;" vertex="1" parent="WIyWlLk6GJQsqaUBKTNV-1">
          <mxGeometry x="490" y="400" width="120" height="80" as="geometry" />
        </mxCell>
        <mxCell id="Otm5AM5ki5C00shR3hLr-2" value="비교/판단/" style="rhombus;whiteSpace=wrap;html=1;" vertex="1" parent="WIyWlLk6GJQsqaUBKTNV-1">
          <mxGeometry x="490" y="510" width="120" height="80" as="geometry" />
        </mxCell>
        <mxCell id="Otm5AM5ki5C00shR3hLr-3" value="실행문/대입문/선언문" style="rounded=0;whiteSpace=wrap;html=1;" vertex="1" parent="WIyWlLk6GJQsqaUBKTNV-1">
          <mxGeometry x="490" y="130" width="120" height="60" as="geometry" />
        </mxCell>
        <mxCell id="Otm5AM5ki5C00shR3hLr-5" value="선언문/준비" style="shape=hexagon;perimeter=hexagonPerimeter2;whiteSpace=wrap;html=1;fixedSize=1;" vertex="1" parent="WIyWlLk6GJQsqaUBKTNV-1">
          <mxGeometry x="490" y="200" width="120" height="80" as="geometry" />
        </mxCell>
        <mxCell id="Otm5AM5ki5C00shR3hLr-8" value="Start/End" style="rounded=1;whiteSpace=wrap;html=1;arcSize=46;" vertex="1" parent="WIyWlLk6GJQsqaUBKTNV-1">
          <mxGeometry x="490" y="40" width="120" height="60" as="geometry" />
        </mxCell>
        <mxCell id="Otm5AM5ki5C00shR3hLr-9" value="입력" style="shape=parallelogram;perimeter=parallelogramPerimeter;whiteSpace=wrap;html=1;fixedSize=1;" vertex="1" parent="WIyWlLk6GJQsqaUBKTNV-1">
          <mxGeometry x="490" y="300" width="120" height="60" as="geometry" />
        </mxCell>
        <mxCell id="Otm5AM5ki5C00shR3hLr-10" value="데이터베이스" style="shape=cylinder3;whiteSpace=wrap;html=1;boundedLbl=1;backgroundOutline=1;size=15;" vertex="1" parent="WIyWlLk6GJQsqaUBKTNV-1">
          <mxGeometry x="520" y="640" width="60" height="80" as="geometry" />
        </mxCell>
        <mxCell id="Otm5AM5ki5C00shR3hLr-11" value="Vertical Container" style="swimlane;whiteSpace=wrap;html=1;" vertex="1" parent="WIyWlLk6GJQsqaUBKTNV-1">
          <mxGeometry x="460" y="750" width="200" height="200" as="geometry" />
        </mxCell>
        <mxCell id="Otm5AM5ki5C00shR3hLr-13" value="순환/반복" style="text;html=1;align=center;verticalAlign=middle;whiteSpace=wrap;rounded=0;" vertex="1" parent="Otm5AM5ki5C00shR3hLr-11">
          <mxGeometry x="70" y="90" width="60" height="30" as="geometry" />
        </mxCell>
        <mxCell id="Otm5AM5ki5C00shR3hLr-12" value="클라우드" style="ellipse;shape=cloud;whiteSpace=wrap;html=1;" vertex="1" parent="WIyWlLk6GJQsqaUBKTNV-1">
          <mxGeometry x="490" y="990" width="120" height="80" as="geometry" />
        </mxCell>
        <mxCell id="Otm5AM5ki5C00shR3hLr-14" value="&lt;font style=&quot;font-size: 17px;&quot;&gt;String gender;&lt;br&gt;&lt;/font&gt;&lt;div style=&quot;font-size: 17px;&quot;&gt;&lt;span style=&quot;background-color: initial;&quot;&gt;&lt;font style=&quot;font-size: 17px;&quot;&gt;char sel = &#39;1&#39;;&lt;/font&gt;&lt;/span&gt;&lt;/div&gt;&lt;div style=&quot;font-size: 17px;&quot;&gt;&lt;span style=&quot;background-color: initial;&quot;&gt;&lt;font style=&quot;font-size: 17px;&quot;&gt;if(sel == &#39;1&#39; || sel ==&#39;3&#39;){&lt;/font&gt;&lt;/span&gt;&lt;/div&gt;&lt;div style=&quot;font-size: 17px;&quot;&gt;&lt;font style=&quot;font-size: 17px;&quot;&gt;}&lt;/font&gt;&lt;/div&gt;" style="rounded=0;whiteSpace=wrap;html=1;align=left;" vertex="1" parent="WIyWlLk6GJQsqaUBKTNV-1">
          <mxGeometry x="10" y="10" width="420" height="180" as="geometry" />
        </mxCell>
        <mxCell id="Otm5AM5ki5C00shR3hLr-22" style="edgeStyle=orthogonalEdgeStyle;rounded=0;orthogonalLoop=1;jettySize=auto;html=1;exitX=0.5;exitY=1;exitDx=0;exitDy=0;entryX=0.5;entryY=0;entryDx=0;entryDy=0;" edge="1" parent="WIyWlLk6GJQsqaUBKTNV-1" source="Otm5AM5ki5C00shR3hLr-15" target="Otm5AM5ki5C00shR3hLr-16">
          <mxGeometry relative="1" as="geometry" />
        </mxCell>
        <mxCell id="Otm5AM5ki5C00shR3hLr-15" value="성별 판별" style="rounded=1;whiteSpace=wrap;html=1;arcSize=46;" vertex="1" parent="WIyWlLk6GJQsqaUBKTNV-1">
          <mxGeometry x="70" y="230" width="120" height="60" as="geometry" />
        </mxCell>
        <mxCell id="Otm5AM5ki5C00shR3hLr-23" style="edgeStyle=orthogonalEdgeStyle;rounded=0;orthogonalLoop=1;jettySize=auto;html=1;exitX=0.5;exitY=1;exitDx=0;exitDy=0;" edge="1" parent="WIyWlLk6GJQsqaUBKTNV-1" source="Otm5AM5ki5C00shR3hLr-16" target="Otm5AM5ki5C00shR3hLr-17">
          <mxGeometry relative="1" as="geometry" />
        </mxCell>
        <mxCell id="Otm5AM5ki5C00shR3hLr-16" value="String gender;&lt;br&gt;char sel = &#39;1&#39;;" style="rounded=0;whiteSpace=wrap;html=1;" vertex="1" parent="WIyWlLk6GJQsqaUBKTNV-1">
          <mxGeometry x="70" y="330" width="120" height="60" as="geometry" />
        </mxCell>
        <mxCell id="Otm5AM5ki5C00shR3hLr-24" style="edgeStyle=orthogonalEdgeStyle;rounded=0;orthogonalLoop=1;jettySize=auto;html=1;exitX=0.5;exitY=1;exitDx=0;exitDy=0;entryX=0.5;entryY=0;entryDx=0;entryDy=0;" edge="1" parent="WIyWlLk6GJQsqaUBKTNV-1" source="Otm5AM5ki5C00shR3hLr-17" target="Otm5AM5ki5C00shR3hLr-18">
          <mxGeometry relative="1" as="geometry" />
        </mxCell>
        <mxCell id="Otm5AM5ki5C00shR3hLr-25" style="edgeStyle=orthogonalEdgeStyle;rounded=0;orthogonalLoop=1;jettySize=auto;html=1;exitX=1;exitY=0.5;exitDx=0;exitDy=0;entryX=0.5;entryY=0;entryDx=0;entryDy=0;" edge="1" parent="WIyWlLk6GJQsqaUBKTNV-1" source="Otm5AM5ki5C00shR3hLr-17" target="Otm5AM5ki5C00shR3hLr-19">
          <mxGeometry relative="1" as="geometry" />
        </mxCell>
        <mxCell id="Otm5AM5ki5C00shR3hLr-17" value="sel == 1 || sel ==3" style="rhombus;whiteSpace=wrap;html=1;" vertex="1" parent="WIyWlLk6GJQsqaUBKTNV-1">
          <mxGeometry x="75" y="440" width="110" height="80" as="geometry" />
        </mxCell>
        <mxCell id="Otm5AM5ki5C00shR3hLr-27" style="edgeStyle=orthogonalEdgeStyle;rounded=0;orthogonalLoop=1;jettySize=auto;html=1;exitX=0.5;exitY=1;exitDx=0;exitDy=0;entryX=0.5;entryY=0;entryDx=0;entryDy=0;" edge="1" parent="WIyWlLk6GJQsqaUBKTNV-1" source="Otm5AM5ki5C00shR3hLr-18" target="Otm5AM5ki5C00shR3hLr-20">
          <mxGeometry relative="1" as="geometry" />
        </mxCell>
        <mxCell id="Otm5AM5ki5C00shR3hLr-18" value="gender=&quot;male&quot;" style="rounded=0;whiteSpace=wrap;html=1;" vertex="1" parent="WIyWlLk6GJQsqaUBKTNV-1">
          <mxGeometry x="70" y="550" width="120" height="60" as="geometry" />
        </mxCell>
        <mxCell id="Otm5AM5ki5C00shR3hLr-19" value="gender=&quot;female&quot;" style="rounded=0;whiteSpace=wrap;html=1;" vertex="1" parent="WIyWlLk6GJQsqaUBKTNV-1">
          <mxGeometry x="230" y="550" width="120" height="60" as="geometry" />
        </mxCell>
        <mxCell id="Otm5AM5ki5C00shR3hLr-30" value="" style="edgeStyle=orthogonalEdgeStyle;rounded=0;orthogonalLoop=1;jettySize=auto;html=1;" edge="1" parent="WIyWlLk6GJQsqaUBKTNV-1" source="Otm5AM5ki5C00shR3hLr-20" target="Otm5AM5ki5C00shR3hLr-21">
          <mxGeometry relative="1" as="geometry" />
        </mxCell>
        <mxCell id="Otm5AM5ki5C00shR3hLr-20" value="gender" style="shape=document;whiteSpace=wrap;html=1;boundedLbl=1;" vertex="1" parent="WIyWlLk6GJQsqaUBKTNV-1">
          <mxGeometry x="70" y="680" width="120" height="80" as="geometry" />
        </mxCell>
        <mxCell id="Otm5AM5ki5C00shR3hLr-21" value="end" style="rounded=1;whiteSpace=wrap;html=1;arcSize=46;" vertex="1" parent="WIyWlLk6GJQsqaUBKTNV-1">
          <mxGeometry x="70" y="830" width="120" height="60" as="geometry" />
        </mxCell>
        <mxCell id="Otm5AM5ki5C00shR3hLr-32" value="" style="endArrow=classic;html=1;rounded=0;" edge="1" parent="WIyWlLk6GJQsqaUBKTNV-1">
          <mxGeometry width="50" height="50" relative="1" as="geometry">
            <mxPoint x="290" y="650" as="sourcePoint" />
            <mxPoint x="130" y="650" as="targetPoint" />
          </mxGeometry>
        </mxCell>
        <mxCell id="Otm5AM5ki5C00shR3hLr-33" value="" style="endArrow=none;html=1;rounded=0;entryX=0.5;entryY=1;entryDx=0;entryDy=0;" edge="1" parent="WIyWlLk6GJQsqaUBKTNV-1" target="Otm5AM5ki5C00shR3hLr-19">
          <mxGeometry width="50" height="50" relative="1" as="geometry">
            <mxPoint x="290" y="650" as="sourcePoint" />
            <mxPoint x="390" y="590" as="targetPoint" />
          </mxGeometry>
        </mxCell>
      </root>
    </mxGraphModel>
  </diagram>
</mxfile>
